Source: Weeds.S06E01.PREAIR.XviD-NoGrp

This is for the people that cant wait. Enjoy! (^_^) 

I love this show! 

Encoded for PSP, iPod, and Zune. 

Video Specs:
Format                           : MPEG-4
Codec ID                         : M4V 
File size                        : 111 MiB
Duration                         : 24mn 35s
Overall bit rate                 : 633 Kbps
Movie name                       : Weeds S06E01 (Pre-Air)
Encoded date                     : 2010
Writing application              : Lavf52.33.0

Video
ID                               : 1
Format                           : AVC
Format/Info                      : Advanced Video Codec
Format profile                   : Baseline@L1.3
Format settings, CABAC           : No
Format settings, ReFrames        : 1 frame
Codec ID                         : avc1
Codec ID/Info       Angels in America             : Advanced Video Coding
Duration                         : 24mn 35s
Bit rate mode                    : Variable
Bit rate                         : 500 Kbps
Width                            : 320 pixels
Height                           : 240 pixels
Display aspect ratio             : 4:3
Frame rate mode                  : Constant
Frame rate                       : 29.970 fps
Color space                      : YUV
Chroma subsampling               : 4:2:0
Bit depth                        : 8 bits
Scan type                        : Progressive
Bits/(Pixel*Frame)               : 0.217
Stream size                      : 87.9 MiB (79%)

Audio
ID                               : 2
Format                           : AAC
Format/Info                      : Advanced Audio Codec
Format version                   : Version 4
Format profile                   : LC
Format settings, SBR             : No
Codec ID                         : 40
Duration                         : 24mn 34s
Bit rate mode                    : Variable
Bit rate                         : 128 Kbps
Channel(s)                       : 2 channels
Channel positions                : Front: L R
Sampling rate                    : 48.0 KHz
Stream size                      : 22.5 MiB (20%)

